<?xml version="1.0" encoding="utf-8"?>
<!-- Generator: Adobe Illustrator 24.0.1, SVG Export Plug-In . SVG Version: 6.00 Build 0)  -->
<svg version="1.1" id="Camada_1" xmlns="http://www.w3.org/2000/svg" xmlns:xlink="http://www.w3.org/1999/xlink" x="0px" y="0px"
	 viewBox="0 0 841.9 56" style="enable-background:new 0 0 841.9 56;" xml:space="preserve">
<style type="text/css">
	.st0{fill:#FFFADC;}
</style>
<polygon class="st0" points="841.9,0 841.9,36.6 828.4,50.9 803.2,24.3 778.1,50.9 752.9,24.3 727.8,50.9 702.6,24.3 677.5,50.9 
	652.4,24.3 627.2,50.9 602.1,24.3 576.9,50.9 551.8,24.3 526.6,50.9 501.5,24.3 476.4,50.9 451.2,24.3 426.1,50.9 400.9,24.3 
	375.8,50.9 350.6,24.3 325.5,50.9 300.3,24.3 275.2,50.9 250,24.3 224.9,50.9 199.7,24.3 174.6,50.9 149.4,24.3 124.3,50.9 
	99.1,24.3 74,50.9 48.8,24.3 23.7,50.9 0,25.8 0,0 "/>
</svg>
